# xmcd
# 
# Track frame offsets:
#     150
#     13578
#     30594
#     44823
#     69661
#     76256
#     93533
#     106870
#     118373
#     135284
#     150838
# 
# Disc length: 2105
# 
# Revision: 16
# Processed by: cddbd v1.5.2PL0 Copyright (c) Steve Scherf et al.
# Submitted via: fre:ac v1.0.31
# 
DISCID=8508370b
DTITLE=Neil Young - After The Gold Rush
DYEAR=2009
DGENRE=Rock/Pop
TTITLE0=Tell Me Why
TTITLE1=After The Gold Rush
TTITLE2=Only Love Can Break Your Heart
TTITLE3=Southern Man
TTITLE4=Till The Morning Comes
TTITLE5=Oh Lonesome Me
TTITLE6=Don't Let It Bring You Down
TTITLE7=Birds
TTITLE8=When You Dance, I Can Really Love
TTITLE9=I Believe In You
TTITLE10=Cripple Creek Ferry
EXTD=
EXTT0=
EXTT1=
EXTT2=
EXTT3=
EXTT4=
EXTT5=
EXTT6=
EXTT7=
EXTT8=
EXTT9=
EXTT10=
PLAYORDER=
